# xmcd
# 
# Track frame offsets:
#     150
#     21270
#     56632
#     83882
#     110417
#     142570
# 
# Disc length: 2237
# 
# Revision: 2
# Processed by: cddbd v1.5.2PL0 Copyright (c) Steve Scherf et al.
# Submitted via: BonkEnc v1.0.8
# 
DISCID=4308bb06
DTITLE=Herbie Hancock - Speak Like A Child
DYEAR=1968
DGENRE=Jazz
TTITLE0=Riot
TTITLE1=Speak Like A Child
TTITLE2=First Trip
TTITLE3=Toys
TTITLE4=Goodbye To Childhood
TTITLE5=The Sorcerer
EXTD=YEAR: 1968
EXTT0=
EXTT1=
EXTT2=
EXTT3=
EXTT4=
EXTT5=
PLAYORDER=
